<svg width="423" height="60" viewBox="0 0 423 60" fill="none" xmlns="http://www.w3.org/2000/svg">
<g clip-path="url(#clip0_6836_19)">
<path d="M108.135 0V56.2682L120.075 60V12.8817C120.075 11.5253 120.075 10.8495 120.737 10.17C121.068 9.49316 121.729 9.49328 122.392 9.83171C124.05 10.5086 125.049 11.8656 125.049 14.5784V33.2165C129.028 35.2498 132.339 35.2498 134.993 33.2165C137.647 31.1833 138.975 28.1362 138.975 23.0517C138.978 17.6288 137.98 14.2386 135.66 11.5285C133.671 8.81567 130.026 6.44153 124.718 4.7467C118.087 2.71345 112.447 1.01796 108.135 0ZM104.821 35.2568L89.5664 40.6801L87.2497 41.695C83.6027 43.3898 81.6133 45.0852 81.6133 46.78C81.9444 48.8133 82.6067 51.5286 87.5807 53.2234C92.2235 54.9183 95.871 55.5953 105.157 52.8851V46.78C96.199 49.8286 94.8749 49.4919 93.548 48.8151C92.2211 48.1382 92.219 47.4567 92.55 47.1183C93.5459 46.4414 97.193 45.0833 97.193 45.0833L104.821 42.3716V35.2568ZM138.562 37.8956C137.485 37.8585 136.407 37.8786 135.329 37.9632C131.682 37.9632 128.363 38.642 124.382 39.66V46.78L131.679 44.0631L135.655 42.7099C135.655 42.7099 137.317 42.3717 138.313 42.0333C139.971 41.6949 141.959 42.3716 141.959 42.3716C142.954 42.3716 143.618 42.707 143.618 43.3865C143.949 44.0634 143.286 44.4064 141.628 45.0833L137.982 46.4417L124.718 51.5215V58.6416L130.686 56.6065L147.264 50.5066L149.255 49.4865C153.233 48.1301 154.891 46.4347 154.56 44.4015C154.56 42.3709 152.24 41.0163 148.262 39.66C145.028 38.6427 141.796 38.0067 138.562 37.8956Z" fill="white"/>
<path fill-rule="evenodd" clip-rule="evenodd" d="M320.01 22.1538C320.01 18.9231 317.462 16.3846 314.45 16.3846C311.207 16.3846 308.89 18.9231 308.89 22.1538C308.89 25.3846 311.438 27.9231 314.45 27.9231C317.693 27.9231 320.01 25.3846 320.01 22.1538ZM306.805 22.1538C306.805 18 310.28 14.5385 314.45 14.5385C318.62 14.5385 322.095 18 322.095 22.1538C322.095 26.3077 318.62 29.7692 314.45 29.7692C310.28 29.7692 306.805 26.5385 306.805 22.1538ZM289.662 44.0769C290.357 45.4615 291.516 46.6154 292.906 47.3077C296.149 48.6923 299.855 47.0769 301.245 43.8461C301.94 42.2308 301.94 40.6154 301.245 39C300.55 37.3846 299.392 36.2308 297.771 35.5385C296.149 34.8461 294.527 34.8461 293.137 35.5385L296.844 37.1538C299.16 38.0769 300.319 40.8461 299.392 43.3846C298.466 45.6923 295.686 46.8461 293.137 45.9231L289.662 44.0769ZM304.489 60C290.821 60 279.238 50.7692 275.531 38.0769L287.114 42.9231C287.809 46.8461 291.284 49.8461 295.454 49.8461C300.087 49.8461 304.025 45.9231 304.025 41.3077C304.025 41.0769 304.025 41.0769 304.025 40.8461L314.218 33.4615H314.45C320.705 33.4615 325.801 28.3846 325.801 22.1538C325.801 15.9231 320.705 10.8462 314.45 10.8462C308.195 10.8462 303.099 15.9231 303.099 22.1538C303.099 22.1538 303.099 22.1538 303.099 22.3846L295.917 32.7692C295.686 32.7692 295.686 32.7692 295.454 32.7692C293.601 32.7692 291.979 33.2308 290.589 34.1538L274.605 27.6923C275.763 12.2308 288.736 0 304.489 0C321.168 0 334.605 13.3846 334.605 30C334.605 46.6154 321.168 60 304.489 60Z" fill="white"/>
<path fill-rule="evenodd" clip-rule="evenodd" d="M200.722 4.23993C206.494 3.93752 213.994 8.41121 214.549 8.52118C214.634 8.53368 215.809 8.01383 217.164 7.34902C224.894 3.58762 228.537 4.22744 230.157 4.29991C222.427 -0.453693 211.684 -1.74832 201.859 2.88533C199.029 4.22744 198.957 4.32491 200.722 4.23993ZM244.143 24.1115C242.1 14.4368 235.978 8.35107 235.118 8.35107C234.235 8.35107 232.19 9.13834 230.765 10.0331C227.945 11.7876 225.803 13.8295 222.983 16.4187C228.113 22.8643 235.35 33.2788 237.853 40.8866C238.675 43.3908 239.025 45.8576 238.748 47.2122C238.543 48.2394 238.543 48.2394 238.915 47.7695C239.655 46.8348 241.325 43.9832 241.99 42.5061C242.885 40.5467 243.803 37.645 244.24 35.4057C244.76 32.684 244.713 26.8432 244.143 24.1115ZM206.445 16.4315C202.855 13.1775 199.417 9.91343 195.992 8.76377C194.155 8.14645 194.02 8.18394 192.522 9.74348C188.99 13.4199 186.047 19.3832 185.227 24.5467C184.572 28.6829 184.487 29.8451 184.717 31.8645C185.395 37.9727 186.812 42.1915 189.617 46.4877C190.767 48.2522 191.082 48.5796 190.742 47.6824C190.235 46.3528 190.705 43.1487 191.892 39.9447C193.622 35.226 198.412 26.2886 206.445 16.4315ZM228.38 37.5254C233.74 44.0909 236.205 49.4719 234.96 51.8812C234.005 53.7056 228.1 57.2746 223.757 58.6417C220.177 59.7663 215.482 60.2512 211.61 59.8738C206.99 59.4289 202.31 57.7694 198.29 55.1602C194.917 52.9583 194.155 52.0486 194.155 50.2491C194.155 46.6302 198.135 40.292 204.945 33.0617C208.817 28.9604 214.202 24.1468 214.792 24.2817C215.93 24.5341 224.992 33.3641 228.38 37.5254Z" fill="white"/>
<path fill-rule="evenodd" clip-rule="evenodd" d="M411.759 27.2141C413.653 27.7115 415.194 29.1477 415.835 30.9886C416.239 32.1249 416.225 33.7976 415.82 34.8412C415.074 36.7626 413.629 38.1061 411.759 38.6011C408.732 39.3862 405.507 37.5599 404.632 34.5535C404.371 33.6391 404.383 32.0859 404.685 31.1325C405.585 28.1674 408.732 26.4167 411.759 27.2141ZM398.82 0.819052C398.769 0.858158 398.743 13.9837 398.743 30.0084C398.743 56.4302 398.757 59.1075 398.937 59.1856C399.264 59.3051 408.663 59.2636 409.828 59.132C414.75 58.5735 419.098 55.5817 421.448 51.1415C421.748 50.566 422.152 49.6126 422.362 49.025C423.118 46.7525 423.106 47.3523 423.106 29.945C423.106 16.0489 423.081 13.9715 422.908 13.0961C421.709 6.7881 416.89 2.02119 410.572 0.938597C409.724 0.794738 408.417 0.753302 404.2 0.753302C401.275 0.741044 398.859 0.780048 398.82 0.819052ZM378.168 12.8743C377.41 13.0181 376.249 13.6057 375.623 14.1422C374.355 15.2394 373.717 16.8049 373.822 18.6482C373.873 19.5992 373.926 19.8625 374.316 20.6331C374.889 21.8082 375.74 22.6691 376.915 23.2445C377.724 23.6492 377.931 23.6882 378.991 23.7272C379.942 23.7663 380.283 23.7272 380.922 23.5054C383.547 22.6178 385.139 20.0698 384.683 17.4461C384.174 14.3519 381.21 12.2622 378.168 12.8743ZM388.076 30.0084V54.5478L383.142 54.4845C378.599 54.4332 378.114 54.4064 377.2 54.1845C373.297 53.1775 370.411 50.1759 369.59 46.255C369.329 45.0286 369.329 14.898 369.575 13.6984C370.306 10.2896 372.671 7.4684 375.845 6.20051C377.436 5.56165 378.182 5.48121 383.364 5.46895L388.049 5.4568V30.0084H388.076ZM377.122 0.938597C371.299 1.98219 366.614 6.29067 365.137 11.9598C364.603 14.0105 364.564 15.2126 364.63 31.0935C364.654 45.6699 364.669 46.0087 364.915 47.1426C366.26 53.2189 370.57 57.5397 376.705 58.9637C377.5 59.1465 378.519 59.1856 385.075 59.2124C391.849 59.2636 392.554 59.2514 392.737 59.0685C392.919 58.8857 392.932 56.5473 392.932 30.0499C392.932 10.3944 392.895 1.14821 392.817 0.977601C392.7 0.753201 392.49 0.741044 385.387 0.753201C379.615 0.767891 377.88 0.806895 377.122 0.938597Z" fill="white"/>
<path fill-rule="evenodd" clip-rule="evenodd" d="M47.8595 39.1497L45.2383 34.9649H37.5847L40.21 30.7733H42.6284L39.7053 26.1066L31.5524 39.1497H9.80189L15.0392 30.7733H11.1941L13.8079 26.5814H30.6207L28.0048 30.7733H19.9865L17.365 34.9649H29.2272L39.7053 18.1955L52.8012 39.1497H47.8595ZM19.0467 18.1955H36.293L33.6716 22.3892H16.4273L19.0467 18.1955ZM30.9993 0C14.432 0 1 13.433 1 30.0007C1 46.573 14.432 60 30.9993 60C47.5665 60 61 46.573 61 30.0007C61 13.433 47.5665 0 30.9993 0Z" fill="white"/>
</g>
<defs>
<clipPath id="clip0_6836_19">
<rect width="423" height="60" fill="white"/>
</clipPath>
</defs>
</svg>
